# xmcd
#
# Track frame offsets:
#	150
#	10254
#	25067
#	34124
#	45574
#	56985
#	68885
#	79743
#	91475
#	102356
#	112475
#	127538
#	139665
#	149676
#	161709
#	174002
#	187197
#	197321
#	209779
#	221424
#	231331
#	244925
#	254849
#	267220
#	280783
#	296699
#	308860
#	322976
#
# Disc length: 4475 seconds
# Revision: 1
# Processed by: cddbd v1.5.2PL0 Copyright (c) Steve Scherf et al.
# Submitted via: dBpowerAMP V12.0
#
DISCID=ab11791c
DTITLE=Various Artist - Jook Joint Blues
DYEAR=1954
DGENRE=Blues
TTITLE0=Papa Lightfoot - Wine, Women, Whiskey
TTITLE1=Lightnin' Slim - Rock Me, Mama
TTITLE2=Little Al - Little Lean Woman
TTITLE3=Joe Hill Louis - Hydramatic Woman
TTITLE4=Frankie Lee Sims - Lucy Mae Blues
TTITLE5=Little Sam Davis - Goin' To New Orleans
TTITLE6=Jesse Thomas - Another Fool Like Me
TTITLE7=Little Milton Anderson - Little Milton Boogie
TTITLE8=L.B. Lawson - Scott's Boogie
TTITLE9=Schoolboy Cleve - She's Gone
TTITLE10=John Lee - Down At The Depot
TTITLE11=Blues Rockers - Calling All Cows
TTITLE12=Jerry McCain - Courtin' In A Cadillac
TTITLE13=Sonny Boy Holmes - Wakin' And Cryin' Blues
TTITLE14=Earl Hooker - Ride, Hooker, Ride
TTITLE15=Good Rockin' Sam - Don't Let Your Daddy Slow Walk You Down
TTITLE16=Lost John Hunter - Cool Down, Mama
TTITLE17=Pee Wee Hughes - Country Boy
TTITLE18=Alex Moore - Little Mae Boogie
TTITLE19=Frank Edwards - Gotta Get Together
TTITLE20=Big Son Tillis - When I Come In This House, Woman
TTITLE21=Lazy Lester - I'm Gonna Leave You, Baby
TTITLE22=Mercy Dee - Evil And Hanky
TTITLE23=Lightnin' Slim - Bad Luck
TTITLE24=R. Green and Turner - Central Avenue Blues
TTITLE25=Alvin Smith - On My Way
TTITLE26=Tommy Lee Thompson - Highway 80 Blues
TTITLE27=Red Johnson - Mama Does The Boogie
EXTD=
EXTT0=
EXTT1=
EXTT2=
EXTT3=
EXTT4=
EXTT5=
EXTT6=
EXTT7=
EXTT8=
EXTT9=
EXTT10=
EXTT11=
EXTT12=
EXTT13=
EXTT14=
EXTT15=
EXTT16=
EXTT17=
EXTT18=
EXTT19=
EXTT20=
EXTT21=
EXTT22=
EXTT23=
EXTT24=
EXTT25=
EXTT26=
EXTT27=
PLAYORDER=
